  0
SECTION
  2
HEADER
  9
$ACADVER
  1
AC1014
  9
$HANDSEED
  5
FFFF
  9
$MEASUREMENT
 70
     1
  0
ENDSEC
  0
SECTION
  2
TABLES
  0
TABLE
  2
VPORT
  5
8
330
0
100
AcDbSymbolTable
 70
     4
  0
VPORT
  5
2E
330
8
100
AcDbSymbolTableRecord
100
AcDbViewportTableRecord
  2
*ACTIVE
 70
     0
 10
0.0
 20
0.0
 11
1.0
 21
1.0
 12
210.0
 22
148.5
 13
0.0
 23
0.0
 14
10.0
 24
10.0
 15
10.0
 25
10.0
 16
0.0
 26
0.0
 36
1.0
 17
0.0
 27
0.0
 37
0.0
 40
341.0
 41
1.24
 42
50.0
 43
0.0
 44
0.0
 50
0.0
 51
0.0
 71
     0
 72
   100
 73
     1
 74
     3
 75
     0
 76
     0
 77
     0
 78
     0
  0
ENDTAB
  0
TABLE
  2
LTYPE
  5
5
330
0
100
AcDbSymbolTable
 70
     1
  0
LTYPE
  5
14
330
5
100
AcDbSymbolTableRecord
100
AcDbLinetypeTableRecord
  2
BYBLOCK
 70
     0
  3

 72
    65
 73
     0
 40
0.0
  0
LTYPE
  5
15
330
5
100
AcDbSymbolTableRecord
100
AcDbLinetypeTableRecord
  2
BYLAYER
 70
     0
  3

 72
    65
 73
     0
 40
0.0
  0
LTYPE
  5
16
330
5
100
AcDbSymbolTableRecord
100
AcDbLinetypeTableRecord
  2
CONTINUOUS
 70
     0
  3
Solid line
 72
    65
 73
     0
 40
0.0
  0
ENDTAB
  0
TABLE
  2
LAYER
  5
2
100
AcDbSymbolTable
 70
1
  0
LAYER
  5
50
100
AcDbSymbolTableRecord
100
AcDbLayerTableRecord
  2
0
 70
0
  6
CONTINUOUS
  0
ENDTAB
  0
TABLE
  2
STYLE
  5
3
330
0
100
AcDbSymbolTable
 70
     1
  0
STYLE
  5
11
330
3
100
AcDbSymbolTableRecord
100
AcDbTextStyleTableRecord
  2
STANDARD
 70
     0
 40
0.0
 41
1.0
 50
0.0
 71
     0
 42
2.5
  3
txt
  4

  0
ENDTAB
  0
TABLE
  2
VIEW
  5
6
330
0
100
AcDbSymbolTable
 70
     0
  0
ENDTAB
  0
TABLE
  2
UCS
  5
7
330
0
100
AcDbSymbolTable
 70
     0
  0
ENDTAB
  0
TABLE
  2
APPID
  5
9
330
0
100
AcDbSymbolTable
 70
     2
  0
APPID
  5
12
330
9
100
AcDbSymbolTableRecord
100
AcDbRegAppTableRecord
  2
ACAD
 70
     0
  0
ENDTAB
  0
TABLE
  2
DIMSTYLE
  5
A
330
0
100
AcDbSymbolTable
 70
     1
  0
DIMSTYLE
105
27
330
A
100
AcDbSymbolTableRecord
100
AcDbDimStyleTableRecord
  2
ISO-25
 70
     0
  3

  4

  5

  6

  7

 40
1.0
 41
2.5
 42
0.625
 43
3.75
 44
1.25
 45
0.0
 46
0.0
 47
0.0
 48
0.0
140
2.5
141
2.5
142
0.0
143
0.03937007874016
144
1.0
145
0.0
146
1.0
147
0.625
 71
     0
 72
     0
 73
     0
 74
     0
 75
     0
 76
     0
 77
     1
 78
     8
170
     0
171
     3
172
     1
173
     0
174
     0
175
     0
176
     0
177
     0
178
     0
270
     2
271
     2
272
     2
273
     2
274
     3
340
11
275
     0
280
     0
281
     0
282
     0
283
     0
284
     8
285
     0
286
     0
287
     3
288
     0
  0
ENDTAB
  0
TABLE
  2
BLOCK_RECORD
  5
1
330
0
100
AcDbSymbolTable
 70
     1
  0
BLOCK_RECORD
  5
1F
330
1
100
AcDbSymbolTableRecord
100
AcDbBlockTableRecord
  2
*MODEL_SPACE
  0
BLOCK_RECORD
  5
1B
330
1
100
AcDbSymbolTableRecord
100
AcDbBlockTableRecord
  2
*PAPER_SPACE
  0
ENDTAB
  0
ENDSEC
  0
SECTION
  2
BLOCKS
  0
BLOCK
  5
20
330
1F
100
AcDbEntity
  8
0
100
AcDbBlockBegin
  2
*MODEL_SPACE
 70
     0
 10
0.0
 20
0.0
 30
0.0
  3
*MODEL_SPACE
  1

  0
ENDBLK
  5
21
330
1F
100
AcDbEntity
  8
0
100
AcDbBlockEnd
  0
BLOCK
  5
1C
330
1B
100
AcDbEntity
 67
     1
  8
0
100
AcDbBlockBegin
  2
*PAPER_SPACE
  1

  0
ENDBLK
  5
1D
330
1B
100
AcDbEntity
 67
     1
  8
0
100
AcDbBlockEnd
  0
ENDSEC
  0
SECTION
  2
ENTITIES
  0
LWPOLYLINE
  5
100
100
AcDbEntity
  8
0
 62
5
100
AcDbPolyline
 90
53
 70
0
 10
96.287979
 20
201.764255
 30
0.0
 10
96.578668
 20
202.199301
 30
0.0
 10
96.810085
 20
202.668566
 30
0.0
 10
96.978270
 20
203.164024
 30
0.0
 10
97.080344
 20
203.677197
 30
0.0
 10
97.114566
 20
204.199299
 30
0.0
 10
97.114566
 20
280.199300
 30
0.0
 10
97.080344
 20
280.721405
 30
0.0
 10
96.978270
 20
281.234576
 30
0.0
 10
96.810085
 20
281.730034
 30
0.0
 10
96.578668
 20
282.199300
 30
0.0
 10
96.287979
 20
282.634346
 30
0.0
 10
95.942994
 20
283.027727
 30
0.0
 10
95.549613
 20
283.372713
 30
0.0
 10
95.114564
 20
283.663402
 30
0.0
 10
94.645299
 20
283.894818
 30
0.0
 10
94.149841
 20
284.063003
 30
0.0
 10
93.636671
 20
284.165079
 30
0.0
 10
93.114566
 20
284.199300
 30
0.0
 10
17.114565
 20
284.199300
 30
0.0
 10
16.592461
 20
284.165079
 30
0.0
 10
16.079289
 20
284.063003
 30
0.0
 10
15.583832
 20
283.894818
 30
0.0
 10
15.114565
 20
283.663402
 30
0.0
 10
14.679519
 20
283.372713
 30
0.0
 10
14.286139
 20
283.027727
 30
0.0
 10
13.941152
 20
282.634346
 30
0.0
 10
13.650463
 20
282.199300
 30
0.0
 10
13.419047
 20
281.730034
 30
0.0
 10
13.250862
 20
281.234576
 30
0.0
 10
13.148786
 20
280.721405
 30
0.0
 10
13.114566
 20
280.199300
 30
0.0
 10
13.114566
 20
204.199299
 30
0.0
 10
13.148786
 20
203.677197
 30
0.0
 10
13.250862
 20
203.164024
 30
0.0
 10
13.419047
 20
202.668566
 30
0.0
 10
13.650463
 20
202.199301
 30
0.0
 10
13.941152
 20
201.764255
 30
0.0
 10
14.286139
 20
201.370874
 30
0.0
 10
14.679519
 20
201.025888
 30
0.0
 10
15.114565
 20
200.735199
 30
0.0
 10
15.583832
 20
200.503783
 30
0.0
 10
16.079289
 20
200.335598
 30
0.0
 10
16.592461
 20
200.233521
 30
0.0
 10
17.114565
 20
200.199302
 30
0.0
 10
93.114566
 20
200.199302
 30
0.0
 10
93.636671
 20
200.233521
 30
0.0
 10
94.149841
 20
200.335598
 30
0.0
 10
94.645299
 20
200.503783
 30
0.0
 10
95.114564
 20
200.735199
 30
0.0
 10
95.549613
 20
201.025888
 30
0.0
 10
95.942994
 20
201.370874
 30
0.0
 10
96.287979
 20
201.764255
 30
0.0
  0
LWPOLYLINE
  5
101
100
AcDbEntity
  8
0
 62
5
100
AcDbPolyline
 90
101
 70
0
 10
91.014101
 20
279.796143
 30
0.0
 10
91.114567
 20
279.799301
 30
0.0
 10
91.215029
 20
279.796143
 30
0.0
 10
91.315100
 20
279.786683
 30
0.0
 10
91.414377
 20
279.770960
 30
0.0
 10
91.512469
 20
279.749035
 30
0.0
 10
91.608992
 20
279.720993
 30
0.0
 10
91.703565
 20
279.686945
 30
0.0
 10
91.795812
 20
279.647026
 30
0.0
 10
91.885372
 20
279.601394
 30
0.0
 10
91.971887
 20
279.550228
 30
0.0
 10
92.055021
 20
279.493730
 30
0.0
 10
92.134444
 20
279.432124
 30
0.0
 10
92.209840
 20
279.365653
 30
0.0
 10
92.280915
 20
279.294578
 30
0.0
 10
92.347387
 20
279.219181
 30
0.0
 10
92.408993
 20
279.139759
 30
0.0
 10
92.465491
 20
279.056626
 30
0.0
 10
92.516658
 20
278.970109
 30
0.0
 10
92.562288
 20
278.880550
 30
0.0
 10
92.602208
 20
278.788302
 30
0.0
 10
92.636255
 20
278.693730
 30
0.0
 10
92.664308
 20
278.597207
 30
0.0
 10
92.686237
 20
278.499113
 30
0.0
 10
92.701957
 20
278.399836
 30
0.0
 10
92.711411
 20
278.299768
 30
0.0
 10
92.714572
 20
278.199303
 30
0.0
 10
92.711411
 20
278.098838
 30
0.0
 10
92.701957
 20
277.998770
 30
0.0
 10
92.686237
 20
277.899493
 30
0.0
 10
92.664308
 20
277.801399
 30
0.0
 10
92.636255
 20
277.704876
 30
0.0
 10
92.602208
 20
277.610304
 30
0.0
 10
92.562288
 20
277.518056
 30
0.0
 10
92.516658
 20
277.428497
 30
0.0
 10
92.465491
 20
277.341980
 30
0.0
 10
92.408993
 20
277.258847
 30
0.0
 10
92.347387
 20
277.179425
 30
0.0
 10
92.280915
 20
277.104028
 30
0.0
 10
92.209840
 20
277.032953
 30
0.0
 10
92.134444
 20
276.966482
 30
0.0
 10
92.055021
 20
276.904876
 30
0.0
 10
91.971887
 20
276.848378
 30
0.0
 10
91.885372
 20
276.797212
 30
0.0
 10
91.795812
 20
276.751580
 30
0.0
 10
91.703565
 20
276.711661
 30
0.0
 10
91.608992
 20
276.677613
 30
0.0
 10
91.512469
 20
276.649569
 30
0.0
 10
91.414377
 20
276.627643
 30
0.0
 10
91.315100
 20
276.611917
 30
0.0
 10
91.215029
 20
276.602457
 30
0.0
 10
91.114567
 20
276.599299
 30
0.0
 10
91.014101
 20
276.602457
 30
0.0
 10
90.914034
 20
276.611917
 30
0.0
 10
90.814756
 20
276.627643
 30
0.0
 10
90.716662
 20
276.649569
 30
0.0
 10
90.620139
 20
276.677613
 30
0.0
 10
90.525566
 20
276.711661
 30
0.0
 10
90.433319
 20
276.751580
 30
0.0
 10
90.343759
 20
276.797212
 30
0.0
 10
90.257243
 20
276.848378
 30
0.0
 10
90.174109
 20
276.904876
 30
0.0
 10
90.094689
 20
276.966482
 30
0.0
 10
90.019291
 20
277.032953
 30
0.0
 10
89.948216
 20
277.104028
 30
0.0
 10
89.881744
 20
277.179425
 30
0.0
 10
89.820138
 20
277.258847
 30
0.0
 10
89.763640
 20
277.341980
 30
0.0
 10
89.712475
 20
277.428497
 30
0.0
 10
89.666843
 20
277.518056
 30
0.0
 10
89.626923
 20
277.610304
 30
0.0
 10
89.592875
 20
277.704876
 30
0.0
 10
89.564822
 20
277.801399
 30
0.0
 10
89.542894
 20
277.899493
 30
0.0
 10
89.527174
 20
277.998770
 30
0.0
 10
89.517720
 20
278.098838
 30
0.0
 10
89.514559
 20
278.199303
 30
0.0
 10
89.517720
 20
278.299768
 30
0.0
 10
89.527174
 20
278.399836
 30
0.0
 10
89.542894
 20
278.499113
 30
0.0
 10
89.564822
 20
278.597207
 30
0.0
 10
89.592875
 20
278.693730
 30
0.0
 10
89.626923
 20
278.788302
 30
0.0
 10
89.666843
 20
278.880550
 30
0.0
 10
89.712475
 20
278.970109
 30
0.0
 10
89.763640
 20
279.056626
 30
0.0
 10
89.820138
 20
279.139759
 30
0.0
 10
89.881744
 20
279.219181
 30
0.0
 10
89.948216
 20
279.294578
 30
0.0
 10
90.019291
 20
279.365653
 30
0.0
 10
90.094689
 20
279.432124
 30
0.0
 10
90.174109
 20
279.493730
 30
0.0
 10
90.257243
 20
279.550228
 30
0.0
 10
90.343759
 20
279.601394
 30
0.0
 10
90.433319
 20
279.647026
 30
0.0
 10
90.525566
 20
279.686945
 30
0.0
 10
90.620139
 20
279.720993
 30
0.0
 10
90.716662
 20
279.749035
 30
0.0
 10
90.814756
 20
279.770960
 30
0.0
 10
90.914034
 20
279.786683
 30
0.0
 10
91.014101
 20
279.796143
 30
0.0
  0
LWPOLYLINE
  5
102
100
AcDbEntity
  8
0
 62
5
100
AcDbPolyline
 90
101
 70
0
 10
90.620139
 20
204.677610
 30
0.0
 10
90.525566
 20
204.711660
 30
0.0
 10
90.433319
 20
204.751577
 30
0.0
 10
90.343759
 20
204.797210
 30
0.0
 10
90.257243
 20
204.848377
 30
0.0
 10
90.174109
 20
204.904875
 30
0.0
 10
90.094689
 20
204.966478
 30
0.0
 10
90.019291
 20
205.032950
 30
0.0
 10
89.948216
 20
205.104025
 30
0.0
 10
89.881744
 20
205.179423
 30
0.0
 10
89.820138
 20
205.258843
 30
0.0
 10
89.763640
 20
205.341978
 30
0.0
 10
89.712475
 20
205.428496
 30
0.0
 10
89.666843
 20
205.518053
 30
0.0
 10
89.626923
 20
205.610300
 30
0.0
 10
89.592875
 20
205.704873
 30
0.0
 10
89.564822
 20
205.801396
 30
0.0
 10
89.542894
 20
205.899491
 30
0.0
 10
89.527174
 20
205.998768
 30
0.0
 10
89.517720
 20
206.098836
 30
0.0
 10
89.514559
 20
206.199301
 30
0.0
 10
89.517720
 20
206.299767
 30
0.0
 10
89.527174
 20
206.399834
 30
0.0
 10
89.542894
 20
206.499111
 30
0.0
 10
89.564822
 20
206.597203
 30
0.0
 10
89.592875
 20
206.693726
 30
0.0
 10
89.626923
 20
206.788299
 30
0.0
 10
89.666843
 20
206.880546
 30
0.0
 10
89.712475
 20
206.970106
 30
0.0
 10
89.763640
 20
207.056624
 30
0.0
 10
89.820138
 20
207.139756
 30
0.0
 10
89.881744
 20
207.219179
 30
0.0
 10
89.948216
 20
207.294574
 30
0.0
 10
90.019291
 20
207.365649
 30
0.0
 10
90.094689
 20
207.432121
 30
0.0
 10
90.174109
 20
207.493727
 30
0.0
 10
90.257243
 20
207.550225
 30
0.0
 10
90.343759
 20
207.601392
 30
0.0
 10
90.433319
 20
207.647022
 30
0.0
 10
90.525566
 20
207.686942
 30
0.0
 10
90.620139
 20
207.720990
 30
0.0
 10
90.716662
 20
207.749043
 30
0.0
 10
90.814756
 20
207.770971
 30
0.0
 10
90.914034
 20
207.786691
 30
0.0
 10
91.014101
 20
207.796145
 30
0.0
 10
91.114567
 20
207.799306
 30
0.0
 10
91.215029
 20
207.796145
 30
0.0
 10
91.315100
 20
207.786691
 30
0.0
 10
91.414377
 20
207.770971
 30
0.0
 10
91.512469
 20
207.749043
 30
0.0
 10
91.608992
 20
207.720990
 30
0.0
 10
91.703565
 20
207.686942
 30
0.0
 10
91.795812
 20
207.647022
 30
0.0
 10
91.885372
 20
207.601392
 30
0.0
 10
91.971887
 20
207.550225
 30
0.0
 10
92.055021
 20
207.493727
 30
0.0
 10
92.134444
 20
207.432121
 30
0.0
 10
92.209840
 20
207.365649
 30
0.0
 10
92.280915
 20
207.294574
 30
0.0
 10
92.347387
 20
207.219179
 30
0.0
 10
92.408993
 20
207.139756
 30
0.0
 10
92.465491
 20
207.056624
 30
0.0
 10
92.516658
 20
206.970106
 30
0.0
 10
92.562288
 20
206.880546
 30
0.0
 10
92.602208
 20
206.788299
 30
0.0
 10
92.636255
 20
206.693726
 30
0.0
 10
92.664308
 20
206.597203
 30
0.0
 10
92.686237
 20
206.499111
 30
0.0
 10
92.701957
 20
206.399834
 30
0.0
 10
92.711411
 20
206.299767
 30
0.0
 10
92.714572
 20
206.199301
 30
0.0
 10
92.711411
 20
206.098836
 30
0.0
 10
92.701957
 20
205.998768
 30
0.0
 10
92.686237
 20
205.899491
 30
0.0
 10
92.664308
 20
205.801396
 30
0.0
 10
92.636255
 20
205.704873
 30
0.0
 10
92.602208
 20
205.610300
 30
0.0
 10
92.562288
 20
205.518053
 30
0.0
 10
92.516658
 20
205.428496
 30
0.0
 10
92.465491
 20
205.341978
 30
0.0
 10
92.408993
 20
205.258843
 30
0.0
 10
92.347387
 20
205.179423
 30
0.0
 10
92.280915
 20
205.104025
 30
0.0
 10
92.209840
 20
205.032950
 30
0.0
 10
92.134444
 20
204.966478
 30
0.0
 10
92.055021
 20
204.904875
 30
0.0
 10
91.971887
 20
204.848377
 30
0.0
 10
91.885372
 20
204.797210
 30
0.0
 10
91.795812
 20
204.751577
 30
0.0
 10
91.703565
 20
204.711660
 30
0.0
 10
91.608992
 20
204.677610
 30
0.0
 10
91.512469
 20
204.649557
 30
0.0
 10
91.414377
 20
204.627628
 30
0.0
 10
91.315100
 20
204.611908
 30
0.0
 10
91.215029
 20
204.602454
 30
0.0
 10
91.114567
 20
204.599293
 30
0.0
 10
91.014101
 20
204.602454
 30
0.0
 10
90.914034
 20
204.611908
 30
0.0
 10
90.814756
 20
204.627628
 30
0.0
 10
90.716662
 20
204.649557
 30
0.0
 10
90.620139
 20
204.677610
 30
0.0
  0
LWPOLYLINE
  5
103
100
AcDbEntity
  8
0
 62
5
100
AcDbPolyline
 90
101
 70
0
 10
19.860517
 20
204.783830
 30
0.0
 10
19.770166
 20
204.739783
 30
0.0
 10
19.677228
 20
204.701500
 30
0.0
 10
19.582070
 20
204.669123
 30
0.0
 10
19.485068
 20
204.642792
 30
0.0
 10
19.386602
 20
204.622585
 30
0.0
 10
19.287064
 20
204.608615
 30
0.0
 10
19.186844
 20
204.600910
 30
0.0
 10
19.086338
 20
204.599499
 30
0.0
 10
18.985945
 20
204.604438
 30
0.0
 10
18.886059
 20
204.615670
 30
0.0
 10
18.787076
 20
204.633140
 30
0.0
 10
18.689383
 20
204.656790
 30
0.0
 10
18.593370
 20
204.686531
 30
0.0
 10
18.499414
 20
204.722240
 30
0.0
 10
18.407885
 20
204.763781
 30
0.0
 10
18.319145
 20
204.810988
 30
0.0
 10
18.233544
 20
204.863670
 30
0.0
 10
18.151419
 20
204.921627
 30
0.0
 10
18.073097
 20
204.984625
 30
0.0
 10
17.998884
 20
205.052415
 30
0.0
 10
17.929075
 20
205.124731
 30
0.0
 10
17.863944
 20
205.201290
 30
0.0
 10
17.803748
 20
205.281788
 30
0.0
 10
17.748726
 20
205.365904
 30
0.0
 10
17.699095
 20
205.453309
 30
0.0
 10
17.655049
 20
205.543662
 30
0.0
 10
17.616764
 20
205.636598
 30
0.0
 10
17.584390
 20
205.731755
 30
0.0
 10
17.558053
 20
205.828760
 30
0.0
 10
17.537860
 20
205.927225
 30
0.0
 10
17.523890
 20
206.026762
 30
0.0
 10
17.516196
 20
206.126982
 30
0.0
 10
17.514813
 20
206.227487
 30
0.0
 10
17.519744
 20
206.327882
 30
0.0
 10
17.530968
 20
206.427766
 30
0.0
 10
17.548440
 20
206.526752
 30
0.0
 10
17.572093
 20
206.624443
 30
0.0
 10
17.601834
 20
206.720458
 30
0.0
 10
17.637545
 20
206.814413
 30
0.0
 10
17.679085
 20
206.905943
 30
0.0
 10
17.726291
 20
206.994682
 30
0.0
 10
17.778975
 20
207.080283
 30
0.0
 10
17.836931
 20
207.162407
 30
0.0
 10
17.899928
 20
207.240729
 30
0.0
 10
17.967719
 20
207.314942
 30
0.0
 10
18.040037
 20
207.384753
 30
0.0
 10
18.116595
 20
207.449884
 30
0.0
 10
18.197091
 20
207.510077
 30
0.0
 10
18.281208
 20
207.565099
 30
0.0
 10
18.368614
 20
207.614733
 30
0.0
 10
18.458965
 20
207.658777
 30
0.0
 10
18.551902
 20
207.697063
 30
0.0
 10
18.647060
 20
207.729437
 30
0.0
 10
18.744063
 20
207.755768
 30
0.0
 10
18.842528
 20
207.775947
 30
0.0
 10
18.942067
 20
207.789917
 30
0.0
 10
19.042287
 20
207.797621
 30
0.0
 10
19.142792
 20
207.799033
 30
0.0
 10
19.243185
 20
207.794094
 30
0.0
 10
19.343071
 20
207.782861
 30
0.0
 10
19.442055
 20
207.765392
 30
0.0
 10
19.539747
 20
207.741741
 30
0.0
 10
19.635761
 20
207.712001
 30
0.0
 10
19.729717
 20
207.676288
 30
0.0
 10
19.821246
 20
207.634748
 30
0.0
 10
19.909986
 20
207.587544
 30
0.0
 10
19.995587
 20
207.534858
 30
0.0
 10
20.077711
 20
207.476904
 30
0.0
 10
20.156034
 20
207.413906
 30
0.0
 10
20.230246
 20
207.346117
 30
0.0
 10
20.300056
 20
207.273797
 30
0.0
 10
20.365187
 20
207.197239
 30
0.0
 10
20.425382
 20
207.116743
 30
0.0
 10
20.480404
 20
207.032627
 30
0.0
 10
20.530036
 20
206.945220
 30
0.0
 10
20.574081
 20
206.854869
 30
0.0
 10
20.612367
 20
206.761934
 30
0.0
 10
20.644741
 20
206.666774
 30
0.0
 10
20.671078
 20
206.569771
 30
0.0
 10
20.691271
 20
206.471307
 30
0.0
 10
20.705241
 20
206.371767
 30
0.0
 10
20.712935
 20
206.271547
 30
0.0
 10
20.714318
 20
206.171042
 30
0.0
 10
20.709387
 20
206.070650
 30
0.0
 10
20.698163
 20
205.970763
 30
0.0
 10
20.680691
 20
205.871779
 30
0.0
 10
20.657038
 20
205.774088
 30
0.0
 10
20.627297
 20
205.678073
 30
0.0
 10
20.591586
 20
205.584119
 30
0.0
 10
20.550046
 20
205.492588
 30
0.0
 10
20.502840
 20
205.403849
 30
0.0
 10
20.450156
 20
205.318248
 30
0.0
 10
20.392200
 20
205.236125
 30
0.0
 10
20.329203
 20
205.157799
 30
0.0
 10
20.261412
 20
205.083589
 30
0.0
 10
20.189094
 20
205.013779
 30
0.0
 10
20.112536
 20
204.948647
 30
0.0
 10
20.032040
 20
204.888452
 30
0.0
 10
19.947923
 20
204.833430
 30
0.0
 10
19.860517
 20
204.783799
 30
0.0
  0
LWPOLYLINE
  5
104
100
AcDbEntity
  8
0
 62
5
100
AcDbPolyline
 90
101
 70
0
 10
19.114565
 20
279.799300
 30
0.0
 10
19.215031
 20
279.796142
 30
0.0
 10
19.315098
 20
279.786682
 30
0.0
 10
19.414375
 20
279.770960
 30
0.0
 10
19.512469
 20
279.749034
 30
0.0
 10
19.608992
 20
279.720992
 30
0.0
 10
19.703565
 20
279.686944
 30
0.0
 10
19.795813
 20
279.647025
 30
0.0
 10
19.885372
 20
279.601393
 30
0.0
 10
19.971888
 20
279.550227
 30
0.0
 10
20.055022
 20
279.493729
 30
0.0
 10
20.134443
 20
279.432123
 30
0.0
 10
20.209840
 20
279.365652
 30
0.0
 10
20.280916
 20
279.294577
 30
0.0
 10
20.347387
 20
279.219180
 30
0.0
 10
20.408993
 20
279.139758
 30
0.0
 10
20.465491
 20
279.056625
 30
0.0
 10
20.516656
 20
278.970108
 30
0.0
 10
20.562289
 20
278.880549
 30
0.0
 10
20.602208
 20
278.788301
 30
0.0
 10
20.636255
 20
278.693729
 30
0.0
 10
20.664297
 20
278.597206
 30
0.0
 10
20.686223
 20
278.499112
 30
0.0
 10
20.701945
 20
278.399835
 30
0.0
 10
20.711406
 20
278.299767
 30
0.0
 10
20.714564
 20
278.199302
 30
0.0
 10
20.711406
 20
278.098837
 30
0.0
 10
20.701945
 20
277.998769
 30
0.0
 10
20.686223
 20
277.899492
 30
0.0
 10
20.664297
 20
277.801398
 30
0.0
 10
20.636255
 20
277.704875
 30
0.0
 10
20.602208
 20
277.610303
 30
0.0
 10
20.562289
 20
277.518055
 30
0.0
 10
20.516656
 20
277.428496
 30
0.0
 10
20.465491
 20
277.341979
 30
0.0
 10
20.408993
 20
277.258846
 30
0.0
 10
20.347387
 20
277.179424
 30
0.0
 10
20.280916
 20
277.104027
 30
0.0
 10
20.209840
 20
277.032952
 30
0.0
 10
20.134443
 20
276.966481
 30
0.0
 10
20.055022
 20
276.904875
 30
0.0
 10
19.971888
 20
276.848377
 30
0.0
 10
19.885372
 20
276.797211
 30
0.0
 10
19.795813
 20
276.751579
 30
0.0
 10
19.703565
 20
276.711660
 30
0.0
 10
19.608992
 20
276.677612
 30
0.0
 10
19.512469
 20
276.649568
 30
0.0
 10
19.414375
 20
276.627642
 30
0.0
 10
19.315098
 20
276.611916
 30
0.0
 10
19.215031
 20
276.602456
 30
0.0
 10
19.114565
 20
276.599298
 30
0.0
 10
19.014100
 20
276.602456
 30
0.0
 10
18.914032
 20
276.611916
 30
0.0
 10
18.814755
 20
276.627642
 30
0.0
 10
18.716661
 20
276.649568
 30
0.0
 10
18.620139
 20
276.677612
 30
0.0
 10
18.525566
 20
276.711660
 30
0.0
 10
18.433318
 20
276.751579
 30
0.0
 10
18.343759
 20
276.797211
 30
0.0
 10
18.257243
 20
276.848377
 30
0.0
 10
18.174110
 20
276.904875
 30
0.0
 10
18.094687
 20
276.966481
 30
0.0
 10
18.019291
 20
277.032952
 30
0.0
 10
17.948215
 20
277.104027
 30
0.0
 10
17.881744
 20
277.179424
 30
0.0
 10
17.820138
 20
277.258846
 30
0.0
 10
17.763640
 20
277.341979
 30
0.0
 10
17.712474
 20
277.428496
 30
0.0
 10
17.666842
 20
277.518055
 30
0.0
 10
17.626924
 20
277.610303
 30
0.0
 10
17.592875
 20
277.704875
 30
0.0
 10
17.564834
 20
277.801398
 30
0.0
 10
17.542908
 20
277.899492
 30
0.0
 10
17.527185
 20
277.998769
 30
0.0
 10
17.517725
 20
278.098837
 30
0.0
 10
17.514567
 20
278.199302
 30
0.0
 10
17.517725
 20
278.299767
 30
0.0
 10
17.527185
 20
278.399835
 30
0.0
 10
17.542908
 20
278.499112
 30
0.0
 10
17.564834
 20
278.597206
 30
0.0
 10
17.592875
 20
278.693729
 30
0.0
 10
17.626924
 20
278.788301
 30
0.0
 10
17.666842
 20
278.880549
 30
0.0
 10
17.712474
 20
278.970108
 30
0.0
 10
17.763640
 20
279.056625
 30
0.0
 10
17.820138
 20
279.139758
 30
0.0
 10
17.881744
 20
279.219180
 30
0.0
 10
17.948215
 20
279.294577
 30
0.0
 10
18.019291
 20
279.365652
 30
0.0
 10
18.094687
 20
279.432123
 30
0.0
 10
18.174110
 20
279.493729
 30
0.0
 10
18.257243
 20
279.550227
 30
0.0
 10
18.343759
 20
279.601393
 30
0.0
 10
18.433318
 20
279.647025
 30
0.0
 10
18.525566
 20
279.686944
 30
0.0
 10
18.620139
 20
279.720992
 30
0.0
 10
18.716661
 20
279.749034
 30
0.0
 10
18.814755
 20
279.770960
 30
0.0
 10
18.914032
 20
279.786682
 30
0.0
 10
19.014100
 20
279.796142
 30
0.0
 10
19.114565
 20
279.799300
 30
0.0
  0
LWPOLYLINE
  5
105
100
AcDbEntity
  8
0
 62
5
100
AcDbPolyline
 90
5
 70
0
 10
20.444566
 20
219.729300
 30
0.0
 10
32.644565
 20
219.729300
 30
0.0
 10
32.644565
 20
207.529302
 30
0.0
 10
20.444566
 20
207.529302
 30
0.0
 10
20.444566
 20
219.729300
 30
0.0
  0
LWPOLYLINE
  5
106
100
AcDbEntity
  8
0
 62
5
100
AcDbPolyline
 90
5
 70
0
 10
32.644565
 20
238.779300
 30
0.0
 10
32.644565
 20
226.579302
 30
0.0
 10
20.444566
 20
226.579302
 30
0.0
 10
20.444566
 20
238.779300
 30
0.0
 10
32.644565
 20
238.779300
 30
0.0
  0
LWPOLYLINE
  5
107
100
AcDbEntity
  8
0
 62
5
100
AcDbPolyline
 90
5
 70
0
 10
20.444566
 20
257.829300
 30
0.0
 10
32.644565
 20
257.829300
 30
0.0
 10
32.644565
 20
245.629302
 30
0.0
 10
20.444566
 20
245.629302
 30
0.0
 10
20.444566
 20
257.829300
 30
0.0
  0
LWPOLYLINE
  5
108
100
AcDbEntity
  8
0
 62
5
100
AcDbPolyline
 90
5
 70
0
 10
20.444566
 20
276.879300
 30
0.0
 10
32.644565
 20
276.879300
 30
0.0
 10
32.644565
 20
264.679302
 30
0.0
 10
20.444566
 20
264.679302
 30
0.0
 10
20.444566
 20
276.879300
 30
0.0
  0
LWPOLYLINE
  5
109
100
AcDbEntity
  8
0
 62
5
100
AcDbPolyline
 90
5
 70
0
 10
51.694565
 20
219.729300
 30
0.0
 10
51.694565
 20
207.529302
 30
0.0
 10
39.494564
 20
207.529302
 30
0.0
 10
39.494564
 20
219.729300
 30
0.0
 10
51.694565
 20
219.729300
 30
0.0
  0
LWPOLYLINE
  5
10a
100
AcDbEntity
  8
0
 62
5
100
AcDbPolyline
 90
5
 70
0
 10
51.694565
 20
238.779300
 30
0.0
 10
51.694565
 20
226.579302
 30
0.0
 10
39.494564
 20
226.579302
 30
0.0
 10
39.494564
 20
238.779300
 30
0.0
 10
51.694565
 20
238.779300
 30
0.0
  0
LWPOLYLINE
  5
10b
100
AcDbEntity
  8
0
 62
5
100
AcDbPolyline
 90
5
 70
0
 10
51.694565
 20
257.829300
 30
0.0
 10
51.694565
 20
245.629302
 30
0.0
 10
39.494564
 20
245.629302
 30
0.0
 10
39.494564
 20
257.829300
 30
0.0
 10
51.694565
 20
257.829300
 30
0.0
  0
LWPOLYLINE
  5
10c
100
AcDbEntity
  8
0
 62
5
100
AcDbPolyline
 90
5
 70
0
 10
51.694565
 20
276.879300
 30
0.0
 10
51.694565
 20
264.679302
 30
0.0
 10
39.494564
 20
264.679302
 30
0.0
 10
39.494564
 20
276.879300
 30
0.0
 10
51.694565
 20
276.879300
 30
0.0
  0
LWPOLYLINE
  5
10d
100
AcDbEntity
  8
0
 62
5
100
AcDbPolyline
 90
25
 70
0
 10
62.141456
 20
209.889724
 30
0.0
 10
61.258873
 20
210.664999
 30
0.0
 10
60.607019
 20
211.642287
 30
0.0
 10
60.230317
 20
212.754985
 30
0.0
 10
60.154442
 20
213.927268
 30
0.0
 10
60.384557
 20
215.079245
 30
0.0
 10
60.904986
 20
216.132411
 30
0.0
 10
61.680265
 20
217.014994
 30
0.0
 10
62.657553
 20
217.666845
 30
0.0
 10
63.770250
 20
218.043547
 30
0.0
 10
64.942534
 20
218.119425
 30
0.0
 10
66.094508
 20
217.889307
 30
0.0
 10
67.147674
 20
217.368878
 30
0.0
 10
68.030257
 20
216.593602
 30
0.0
 10
68.682111
 20
215.616314
 30
0.0
 10
69.058813
 20
214.503617
 30
0.0
 10
69.134691
 20
213.331333
 30
0.0
 10
68.904572
 20
212.179356
 30
0.0
 10
68.384143
 20
211.126190
 30
0.0
 10
67.608868
 20
210.243608
 30
0.0
 10
66.631580
 20
209.591753
 30
0.0
 10
65.518879
 20
209.215054
 30
0.0
 10
64.346599
 20
209.139176
 30
0.0
 10
63.194621
 20
209.369294
 30
0.0
 10
62.141456
 20
209.889724
 30
0.0
  0
LWPOLYLINE
  5
10e
100
AcDbEntity
  8
0
 62
5
100
AcDbPolyline
 90
25
 70
0
 10
60.945435
 20
235.241805
 30
0.0
 10
61.734706
 20
236.111896
 30
0.0
 10
62.722277
 20
236.748062
 30
0.0
 10
63.840851
 20
237.106947
 30
0.0
 10
65.014196
 20
237.164094
 30
0.0
 10
66.162352
 20
236.915611
 30
0.0
 10
67.207071
 20
236.378430
 30
0.0
 10
68.077162
 20
235.589161
 30
0.0
 10
68.713325
 20
234.601587
 30
0.0
 10
69.072210
 20
233.483013
 30
0.0
 10
69.129360
 20
232.309671
 30
0.0
 10
68.880877
 20
231.161515
 30
0.0
 10
68.343695
 20
230.116793
 30
0.0
 10
67.554427
 20
229.246705
 30
0.0
 10
66.566852
 20
228.610540
 30
0.0
 10
65.448279
 20
228.251654
 30
0.0
 10
64.274934
 20
228.194507
 30
0.0
 10
63.126781
 20
228.442990
 30
0.0
 10
62.082059
 20
228.980172
 30
0.0
 10
61.211971
 20
229.769440
 30
0.0
 10
60.575805
 20
230.757014
 30
0.0
 10
60.216920
 20
231.875585
 30
0.0
 10
60.159773
 20
233.048930
 30
0.0
 10
60.408256
 20
234.197086
 30
0.0
 10
60.945435
 20
235.241805
 30
0.0
  0
LWPOLYLINE
  5
10f
100
AcDbEntity
  8
0
 62
5
100
AcDbPolyline
 90
25
 70
0
 10
60.195945
 20
251.051231
 30
0.0
 10
60.172041
 20
252.225721
 30
0.0
 10
60.452923
 20
253.366384
 30
0.0
 10
61.019459
 20
254.395482
 30
0.0
 10
61.833040
 20
255.242883
 30
0.0
 10
62.838223
 20
255.850840
 30
0.0
 10
63.966508
 20
256.177922
 30
0.0
 10
65.140998
 20
256.201826
 30
0.0
 10
66.281661
 20
255.920944
 30
0.0
 10
67.310759
 20
255.354408
 30
0.0
 10
68.158160
 20
254.540827
 30
0.0
 10
68.766117
 20
253.535644
 30
0.0
 10
69.093196
 20
252.407362
 30
0.0
 10
69.117100
 20
251.232869
 30
0.0
 10
68.836218
 20
250.092209
 30
0.0
 10
68.269683
 20
249.063111
 30
0.0
 10
67.456101
 20
248.215710
 30
0.0
 10
66.450918
 20
247.607753
 30
0.0
 10
65.322636
 20
247.280671
 30
0.0
 10
64.148143
 20
247.256767
 30
0.0
 10
63.007483
 20
247.537651
 30
0.0
 10
61.978385
 20
248.104187
 30
0.0
 10
61.130982
 20
248.917766
 30
0.0
 10
60.523027
 20
249.922951
 30
0.0
 10
60.195945
 20
251.051233
 30
0.0
  0
LWPOLYLINE
  5
110
100
AcDbEntity
  8
0
 62
5
100
AcDbPolyline
 90
25
 70
0
 10
64.644566
 20
275.279300
 30
0.0
 10
65.809252
 20
275.125966
 30
0.0
 10
66.894566
 20
274.676414
 30
0.0
 10
67.826546
 20
273.961281
 30
0.0
 10
68.541680
 20
273.029300
 30
0.0
 10
68.991232
 20
271.943986
 30
0.0
 10
69.144566
 20
270.779300
 30
0.0
 10
68.991232
 20
269.614614
 30
0.0
 10
68.541680
 20
268.529301
 30
0.0
 10
67.826546
 20
267.597318
 30
0.0
 10
66.894566
 20
266.882187
 30
0.0
 10
65.809252
 20
266.432635
 30
0.0
 10
64.644566
 20
266.279301
 30
0.0
 10
63.479880
 20
266.432635
 30
0.0
 10
62.394567
 20
266.882187
 30
0.0
 10
61.462584
 20
267.597318
 30
0.0
 10
60.747453
 20
268.529301
 30
0.0
 10
60.297901
 20
269.614614
 30
0.0
 10
60.144567
 20
270.779300
 30
0.0
 10
60.297901
 20
271.943986
 30
0.0
 10
60.747453
 20
273.029300
 30
0.0
 10
61.462584
 20
273.961281
 30
0.0
 10
62.394567
 20
274.676414
 30
0.0
 10
63.479880
 20
275.125966
 30
0.0
 10
64.644566
 20
275.279300
 30
0.0
  0
ENDSEC
  0
SECTION
  2
OBJECTS
  0
DICTIONARY
  5
C
330
0
100
AcDbDictionary
  3
ACAD_GROUP
350
D
  3
ACAD_MLINESTYLE
350
17
  0
DICTIONARY
  5
D
330
C
100
AcDbDictionary
  0
DICTIONARY
  5
1A
330
C
100
AcDbDictionary
  0
DICTIONARY
  5
17
330
C
100
AcDbDictionary
  3
STANDARD
350
18
  0
DICTIONARY
  5
19
330
C
100
AcDbDictionary
  0
ENDSEC
  0
EOF
