<?xml version="1.0" standalone="no"?>
<!DOCTYPE svg PUBLIC "-//W3C//DTD SVG 1.1//EN" "http://www.w3.org/Graphics/SVG/1.1/DTD/svg11.dtd">
<svg width="103.99999999999999mm" height="104.00000000000045mm"
 viewBox="0 0 103.99999999999999 104.00000000000045"
 xmlns="http://www.w3.org/2000/svg" version="1.1"
 xmlns:xlink="http://www.w3.org/1999/xlink">
<desc>Output from Flights of Ideas SVG Sketchup Plugin</desc>

<g id="text_annotations" font-size="10" stroke="#FF0000" stroke-width="0.1">
</g>
  <path id="face0-cut"
 style="fill:none;stroke:#0000FF;stroke-width:0.1;stroke-miterlimit:4;stroke-dasharray:none;stroke-linejoin:round;stroke-linecap:round"
        d="M 93.17341336116493,92.43504571603489 L 93.46410161513774,92.0 L 93.69551813004513,91.53073372946037 L 93.86370330515626,91.03527618041008 L 93.96577944549523,90.52210476888021 L 93.99999999999999,90.0 L 93.99999999999999,14.000000000000094 L 93.96577944549523,13.477895231119867 L 93.86370330515626,12.964723819589992 L 93.69551813004513,12.469266270539697 L 93.46410161513774,12.000000000000087 L 93.17341336116493,11.564954283965182 L 92.82842712474617,11.171572875253887 L 92.43504571603486,10.826586638835128 L 91.99999999999999,10.535898384862326 L 91.53073372946034,10.304481869954945 L 91.03527618041008,10.136296694843795 L 90.5221047688802,10.034220554504842 L 89.99999999999997,10.000000000000068 L 13.999999999999972,10.0 L 13.477895231119803,10.034220554504774 L 12.964723819589892,10.13629669484375 L 12.469266270539649,10.304481869954856 L 12.0,10.535898384862259 L 11.564954283965108,10.82658663883506 L 11.171572875253787,11.17157287525383 L 10.826586638835053,11.564954283965138 L 10.53589838486225,12.000000000000007 L 10.304481869954856,12.46926627053964 L 10.136296694843722,12.964723819589924 L 10.034220554504728,13.47789523111981 L 10.000000000000028,14.000000000000014 L 10.0,89.9999999999998 L 10.034220554504742,90.52210476888047 L 10.136296694843708,91.03527618041028 L 10.304481869954856,91.53073372946 L 10.53589838486225,91.99999999999852 L 10.826586638835053,92.43504571603489 L 11.171572875253801,92.82842712474618 L 11.564954283965108,93.17341336116456 L 12.0,93.46410161513782 L 12.46926627053962,93.69551813004495 L 12.964723819589906,93.86370330515646 L 13.477895231119788,93.96577944549546 L 14.0,94.00000000000045 L 89.99999999999999,94.0 L 90.52210476888018,93.96577944549523 L 91.03527618041008,93.86370330515626 L 91.53073372946034,93.69551813004514 L 91.99999999999999,93.46410161513776 L 92.43504571603486,93.17341336116493 L 92.82842712474617,92.82842712474618 L 93.17341336116493,92.43504571603489 M 87.89953516875308,14.403157234514854 L 87.99999999999997,14.400000000000059 L 88.10046483124688,14.403157234514843 L 88.20053317370288,14.412616477896915 L 88.29981010333714,14.428340398834163 L 88.39790381946374,14.450266942194272 L 88.49442719099989,14.478309573927824 L 88.58899928429547,14.512357622578879 L 88.68124686650411,14.552276716054443 L 88.77080587856274,14.597909311929897 L 88.85732287196637,14.649075319196836 L 88.94045640366794,14.705572809000152 L 89.01987838359788,14.767178811558827 L 89.0952753694859,14.833650196125806 L 89.16634980387424,14.904724630514163 L 89.23282118844126,14.980121616402169 L 89.2944271909999,15.059543596332126 L 89.3509246808032,15.142677128033675 L 89.40209068807016,15.22919412143733 L 89.44772328394562,15.31875313349596 L 89.4876423774212,15.411000715704603 L 89.52169042607224,15.505572809000173 L 89.5497330578058,15.602096180536307 L 89.57165960116588,15.70018989666292 L 89.58738352210314,15.799466826297195 L 89.59684276548522,15.899535168753156 L 89.59999999999998,16.000000000000068 L 89.59684276548523,16.10046483124698 L 89.58738352210315,16.200533173702965 L 89.57165960116588,16.29981010333724 L 89.5497330578058,16.39790381946385 L 89.52169042607224,16.494427190999986 L 89.4876423774212,16.588999284295546 L 89.44772328394562,16.681246866504175 L 89.40209068807017,16.770805878562804 L 89.35092468080322,16.85732287196647 L 89.2944271909999,16.940456403668055 L 89.23282118844125,17.019878383597955 L 89.16634980387424,17.09527536948596 L 89.09527536948588,17.166349803874333 L 89.01987838359788,17.23282118844133 L 88.94045640366795,17.294427190999972 L 88.85732287196637,17.35092468080329 L 88.77080587856273,17.40209068807026 L 88.6812468665041,17.447723283945717 L 88.58899928429547,17.487642377421256 L 88.49442719099989,17.521690426072325 L 88.39790381946375,17.549733057805888 L 88.29981010333715,17.571659601165962 L 88.20053317370287,17.58738352210323 L 88.1004648312469,17.596842765485302 L 88.0,17.600000000000076 L 87.89953516875309,17.596842765485302 L 87.79946682629709,17.58738352210323 L 87.70018989666283,17.571659601165972 L 87.60209618053622,17.549733057805888 L 87.50557280900009,17.521690426072336 L 87.4110007157045,17.487642377421256 L 87.31875313349586,17.44772328394569 L 87.22919412143723,17.40209068807026 L 87.14267712803358,17.3509246808033 L 87.05954359633202,17.294427190999983 L 86.98012161640209,17.232821188441342 L 86.9047246305141,17.166349803874333 L 86.83365019612573,17.09527536948597 L 86.76717881155874,17.019878383597955 L 86.70557280900007,16.94045640366802 L 86.64907531919677,16.85732287196647 L 86.5979093119298,16.770805878562804 L 86.55227671605437,16.681246866504175 L 86.51235762257879,16.588999284295546 L 86.47830957392773,16.494427190999986 L 86.45026694219418,16.39790381946385 L 86.42834039883408,16.29981010333725 L 86.41261647789682,16.20053317370295 L 86.40315723451475,16.100464831246967 L 86.39999999999999,16.000000000000078 L 86.40315723451475,15.899535168753156 L 86.41261647789682,15.799466826297182 L 86.42834039883408,15.70018989666292 L 86.45026694219416,15.602096180536307 L 86.47830957392775,15.505572809000173 L 86.51235762257878,15.411000715704603 L 86.55227671605437,15.31875313349596 L 86.5979093119298,15.22919412143733 L 86.64907531919677,15.142677128033675 L 86.70557280900006,15.059543596332116 L 86.76717881155872,14.980121616402156 L 86.83365019612572,14.904724630514163 L 86.90472463051408,14.833650196125806 L 86.98012161640207,14.767178811558837 L 87.05954359633202,14.705572809000152 L 87.14267712803358,14.649075319196836 L 87.22919412143723,14.597909311929897 L 87.31875313349585,14.552276716054443 L 87.4110007157045,14.512357622578879 L 87.50557280900007,14.478309573927824 L 87.60209618053622,14.450266942194272 L 87.70018989666283,14.428340398834152 L 87.79946682629709,14.412616477896915 L 87.89953516875308,14.403157234514854 M 87.50557280900009,89.52169042607224 L 87.4110007157045,89.4876423774212 L 87.31875313349586,89.44772328394563 L 87.22919412143723,89.40209068807019 L 87.14267712803358,89.35092468080322 L 87.05954359633202,89.29442719099993 L 86.98012161640209,89.23282118844128 L 86.90472463051408,89.16634980387425 L 86.83365019612572,89.0952753694859 L 86.76717881155872,89.0198783835979 L 86.70557280900007,88.94045640366795 L 86.64907531919677,88.8573228719664 L 86.59790931192981,88.77080587856275 L 86.55227671605437,88.68124686650413 L 86.51235762257879,88.58899928429548 L 86.47830957392775,88.49442719099991 L 86.45026694219416,88.39790381946378 L 86.42834039883408,88.29981010333717 L 86.41261647789682,88.2005331737029 L 86.40315723451475,88.10046483124691 L 86.39999999999999,88.0 L 86.40315723451475,87.89953516875309 L 86.41261647789682,87.7994668262971 L 86.42834039883408,87.70018989666283 L 86.45026694219418,87.60209618053622 L 86.47830957392775,87.50557280900009 L 86.51235762257879,87.41100071570452 L 86.55227671605437,87.31875313349587 L 86.59790931192981,87.22919412143725 L 86.64907531919677,87.14267712803363 L 86.70557280900007,87.05954359633205 L 86.76717881155872,86.9801216164021 L 86.83365019612572,86.9047246305141 L 86.90472463051408,86.83365019612575 L 86.98012161640209,86.76717881155875 L 87.05954359633202,86.70557280900007 L 87.14267712803358,86.64907531919678 L 87.22919412143723,86.59790931192981 L 87.31875313349586,86.55227671605437 L 87.4110007157045,86.5123576225788 L 87.50557280900009,86.47830957392776 L 87.60209618053622,86.45026694219419 L 87.70018989666283,86.42834039883411 L 87.79946682629709,86.41261647789685 L 87.89953516875309,86.40315723451477 L 87.99999999999999,86.4 L 88.10046483124688,86.40315723451477 L 88.20053317370287,86.41261647789685 L 88.29981010333715,86.42834039883411 L 88.39790381946375,86.45026694219419 L 88.49442719099989,86.47830957392776 L 88.58899928429548,86.5123576225788 L 88.68124686650411,86.55227671605437 L 88.77080587856274,86.59790931192981 L 88.85732287196637,86.64907531919678 L 88.94045640366794,86.70557280900007 L 89.01987838359788,86.76717881155875 L 89.09527536948589,86.83365019612575 L 89.16634980387424,86.9047246305141 L 89.23282118844125,86.9801216164021 L 89.2944271909999,87.05954359633205 L 89.3509246808032,87.14267712803363 L 89.40209068807016,87.22919412143725 L 89.4477232839456,87.31875313349587 L 89.4876423774212,87.41100071570452 L 89.52169042607223,87.50557280900009 L 89.5497330578058,87.60209618053622 L 89.57165960116588,87.70018989666283 L 89.58738352210315,87.7994668262971 L 89.59684276548522,87.89953516875309 L 89.59999999999998,88.0 L 89.59684276548522,88.10046483124691 L 89.58738352210315,88.2005331737029 L 89.57165960116588,88.29981010333717 L 89.5497330578058,88.39790381946378 L 89.52169042607224,88.49442719099991 L 89.4876423774212,88.58899928429548 L 89.4477232839456,88.68124686650413 L 89.40209068807017,88.77080587856275 L 89.3509246808032,88.8573228719664 L 89.2944271909999,88.94045640366795 L 89.23282118844125,89.0198783835979 L 89.16634980387424,89.0952753694859 L 89.09527536948589,89.16634980387425 L 89.01987838359788,89.23282118844128 L 88.94045640366794,89.29442719099993 L 88.85732287196637,89.35092468080322 L 88.77080587856274,89.40209068807019 L 88.68124686650411,89.44772328394563 L 88.58899928429548,89.4876423774212 L 88.49442719099989,89.52169042607224 L 88.39790381946375,89.54973305780581 L 88.29981010333715,89.57165960116589 L 88.20053317370287,89.58738352210318 L 88.10046483124688,89.59684276548523 L 87.99999999999999,89.6 L 87.89953516875309,89.59684276548523 L 87.79946682629709,89.58738352210318 L 87.70018989666283,89.57165960116589 L 87.60209618053622,89.54973305780581 L 87.50557280900009,89.52169042607224 M 16.745950521003778,89.41547088285637 L 16.655600405933598,89.45951639515968 L 16.56266293557654,89.49780186304088 L 16.46750489166901,89.53017619124907 L 16.370501819536713,89.55651161310155 L 16.272036545988897,89.57670419471955 L 16.172497668475728,89.59067424520882 L 16.07227802147176,89.5983666311621 L 15.971773126137776,89.59975099424616 L 15.871379629379248,89.59482187101307 L 15.771493738462539,89.58359871445975 L 15.67250965736551,89.56612581725784 L 15.574818031034766,89.54247213694987 L 15.478804403688358,89.51273102380611 L 15.384847697248986,89.47701985241221 L 15.293318715912193,89.43547955844767 L 15.204578682751745,89.38827408247346 L 15.11897781413704,89.33558972293787 L 15.036853937589186,89.27763440093884 L 14.958531158530093,89.2146368396549 L 14.88431858118642,89.14684566167998 L 14.81450908869644,89.07452840782204 L 14.7493781872341,88.99797048124395 L 14.689182918711992,88.91747402110573 L 14.634160846354348,88.83335671016013 L 14.584529117143632,88.7459505210036 L 14.54048360484039,88.6556004059336 L 14.502198136959223,88.56266293557636 L 14.469823808750903,88.46750489166917 L 14.443488386898423,88.37050181953677 L 14.423295805280375,88.27203654598895 L 14.40932575479124,88.17249766847581 L 14.401633368838006,88.07227802147165 L 14.400249005753707,87.97177312613772 L 14.405178128987004,87.87137962937919 L 14.416401285540374,87.77149373846254 L 14.433874182742287,87.67250965736557 L 14.457527863050075,87.57481803103477 L 14.487268976193917,87.47880440368834 L 14.522980147587674,87.384847697249 L 14.564520441552688,87.29331871591242 L 14.611725917526698,87.20457868275167 L 14.664410277062117,87.11897781413711 L 14.722365599061078,87.03685393758914 L 14.785363160344886,86.9585311585302 L 14.853154338320053,86.88431858118639 L 14.9254715921779,86.81450908869638 L 15.002029518756117,86.74937818723399 L 15.082525978894424,86.68918291871199 L 15.166643289840067,86.63416084635423 L 15.254049478996194,86.58452911714352 L 15.344399594066374,86.54048360484046 L 15.437337064423431,86.50219813695927 L 15.532495108330991,86.4698238087509 L 15.629498180463273,86.4434883868984 L 15.727963454011089,86.4232958052803 L 15.827502331524258,86.40932575479113 L 15.927721978528211,86.40163336883793 L 16.028226873862224,86.40024900575372 L 16.128620370620723,86.40517812898707 L 16.228506261537447,86.41640128554033 L 16.327490342634476,86.43387418274239 L 16.42518196896522,86.45752786305002 L 16.521195596311642,86.4872689761938 L 16.615152302751,86.52298014758779 L 16.70668128408778,86.5645204415527 L 16.79542131724824,86.6117259175266 L 16.881022185862932,86.6644102770621 L 16.9631460624108,86.72236559906105 L 17.041468841469893,86.78536316034499 L 17.115681418813566,86.85315433832011 L 17.185490911303546,86.92547159217798 L 17.250621812765885,87.00202951875622 L 17.310817081287993,87.08252597889452 L 17.36583915364561,87.16664328984021 L 17.415470882856354,87.25404947899617 L 17.459516395159596,87.34439959406635 L 17.49780186304075,87.43733706442347 L 17.53017619124907,87.53249510833098 L 17.55651161310155,87.62949818046346 L 17.576704194719596,87.7279634540113 L 17.590674245208746,87.82750233152441 L 17.59836663116198,87.92772197852824 L 17.599750994246264,88.0282268738622 L 17.594821871012982,88.1286203706209 L 17.583598714459598,88.22850626153752 L 17.5661258172577,88.3274903426344 L 17.54247213694991,88.42518196896526 L 17.51273102380607,88.5211955963116 L 17.47701985241231,88.61515230275089 L 17.435479558447284,88.70668128408781 L 17.388274082473288,88.79542131724835 L 17.33558972293787,88.88102218586295 L 17.277634400938922,88.96314606241083 L 17.2146368396551,89.04146884146977 L 17.146845661679933,89.11568141881375 L 17.074528407822086,89.18549091130365 L 16.99797048124387,89.25062181276616 L 16.917474021105562,89.31081708128781 L 16.833356710159933,89.36583915364557 L 16.745950521003778,89.41547088285637 M 16.000000000000014,14.39999999999997 L 16.100464831246896,14.403157234514753 L 16.200533173702865,14.412616477896835 L 16.29981010333715,14.428340398834061 L 16.397903819463778,14.450266942194148 L 16.494427190999886,14.478309573927767 L 16.588999284295483,14.512357622578799 L 16.681246866504083,14.552276716054386 L 16.77080587856274,14.597909311929818 L 16.857322871966375,14.649075319196792 L 16.940456403667966,14.705572809000072 L 17.019878383597913,14.767178811558736 L 17.09527536948592,14.833650196125715 L 17.16634980387427,14.904724630514096 L 17.232821188441264,14.980121616402089 L 17.29442719099991,15.059543596332015 L 17.350924680803246,15.142677128033574 L 17.40209068807019,15.229194121437251 L 17.44772328394565,15.31875313349587 L 17.487642377421196,15.4110007157045 L 17.52169042607224,15.505572809000093 L 17.54973305780581,15.602096180536218 L 17.57165960116589,15.700189896662874 L 17.587383522103167,15.799466826297127 L 17.596842765485235,15.899535168753076 L 17.600000000000023,15.99999999999999 L 17.59684276548522,16.100464831246914 L 17.587383522103153,16.200533173702908 L 17.57165960116589,16.299810103337173 L 17.54973305780581,16.39790381946377 L 17.52169042607224,16.494427190999897 L 17.48764237742118,16.58899928429552 L 17.44772328394562,16.681246866504107 L 17.40209068807019,16.770805878562726 L 17.350924680803203,16.857322871966414 L 17.294427190999897,16.940456403667998 L 17.232821188441292,17.019878383597888 L 17.166349803874255,17.095275369485925 L 17.09527536948589,17.166349803874276 L 17.019878383597884,17.2328211884413 L 16.94045640366795,17.294427190999894 L 16.85732287196639,17.350924680803242 L 16.77080587856274,17.402090688070192 L 16.68124686650411,17.447723283945635 L 16.58899928429547,17.487642377421224 L 16.494427190999915,17.52169042607228 L 16.397903819463764,17.54973305780583 L 16.299810103337137,17.57165960116594 L 16.20053317370288,17.587383522103178 L 16.10046483124691,17.596842765485235 L 16.0,17.599999999999998 L 15.899535168753104,17.596842765485224 L 15.799466826297106,17.58738352210319 L 15.70018989666282,17.57165960116592 L 15.602096180536222,17.54973305780583 L 15.505572809000085,17.521690426072247 L 15.411000715704503,17.48764237742119 L 15.318753133495889,17.447723283945635 L 15.229194121437246,17.40209068807018 L 15.142677128033611,17.350924680803253 L 15.059543596332006,17.29442719099994 L 14.980121616402101,17.232821188441275 L 14.904724630514096,17.16634980387424 L 14.833650196125731,17.095275369485904 L 14.767178811558736,17.0198783835979 L 14.705572809000046,16.94045640366801 L 14.649075319196768,16.857322871966414 L 14.597909311929811,16.77080587856275 L 14.552276716054337,16.681246866504118 L 14.51235762257879,16.588999284295475 L 14.478309573927746,16.494427190999918 L 14.450266942194176,16.39790381946378 L 14.428340398834067,16.29981010333716 L 14.412616477896819,16.200533173702862 L 14.40315723451478,16.100464831246878 L 14.400000000000006,16.0 L 14.403157234514765,15.899535168753076 L 14.412616477896847,15.799466826297104 L 14.428340398834067,15.700189896662852 L 14.45026694219419,15.602096180536218 L 14.478309573927746,15.505572809000105 L 14.512357622578776,15.411000715704523 L 14.552276716054365,15.318753133495893 L 14.597909311929811,15.229194121437274 L 14.649075319196783,15.142677128033597 L 14.705572809000074,15.059543596332048 L 14.767178811558722,14.980121616402133 L 14.833650196125717,14.904724630514085 L 14.904724630514096,14.833650196125726 L 14.980121616402101,14.767178811558736 L 15.05954359633202,14.705572809000085 L 15.142677128033597,14.649075319196768 L 15.22919412143726,14.597909311929797 L 15.318753133495903,14.552276716054363 L 15.411000715704503,14.512357622578788 L 15.505572809000085,14.478309573927744 L 15.602096180536222,14.45026694219417 L 15.700189896662806,14.428340398834116 L 15.799466826297106,14.412616477896812 L 15.89953516875309,14.40315723451473 L 16.000000000000014,14.39999999999997 M 17.33,74.47000000000003 L 29.529999999999987,74.47000000000001 L 29.529999999999987,86.66999999999996 L 17.33,86.66999999999996 L 17.33,74.47000000000003 M 29.529999999999987,55.42 L 29.529999999999987,67.61999999999999 L 17.330000000000013,67.61999999999995 L 17.329999999999984,55.42000000000003 L 29.529999999999987,55.42 M 17.330000000000027,36.369999999999976 L 29.529999999999973,36.37000000000003 L 29.53,48.56999999999998 L 17.330000000000013,48.569999999999986 L 17.330000000000027,36.369999999999976 M 17.33,17.320000000000018 L 29.53,17.320000000000018 L 29.53,29.520000000000007 L 17.330000000000027,29.520000000000007 L 17.33,17.320000000000018 M 48.58,74.47 L 48.579999999999984,86.67000000000004 L 36.379999999999995,86.66999999999993 L 36.379999999999995,74.46999999999997 L 48.58,74.47 M 48.58,55.42000000000001 L 48.579999999999984,67.62000000000002 L 36.379999999999995,67.61999999999999 L 36.38000000000001,55.419999999999995 L 48.58,55.42000000000001 M 48.58,36.370000000000005 L 48.58,48.57 L 36.379999999999995,48.57000000000001 L 36.38000000000001,36.370000000000005 L 48.58,36.370000000000005 M 48.580000000000005,17.320000000000018 L 48.58,29.520000000000017 L 36.37999999999999,29.520000000000017 L 36.379999999999995,17.32000000000003 L 48.580000000000005,17.320000000000018 M 59.02689020367449,84.309577696417 L 58.14430767321869,83.534302189112 L 57.49245447971193,82.55701438636004 L 57.115753341053335,81.44431483687418 L 57.03987581731445,80.2720321761289 L 57.269992836344514,79.12005553016539 L 57.790422303583014,78.06689020367452 L 58.565697810887976,77.18430767321871 L 59.54298561363995,76.53245447971193 L 60.65568516312583,76.15575334105336 L 61.82796782387108,76.07987581731447 L 62.97994446983465,76.30999283634455 L 64.0331097963255,76.83042230358302 L 64.9156923267813,77.60569781088799 L 65.56754552028806,78.58298561363998 L 65.94424665894665,79.69568516312583 L 66.02012418268554,80.86796782387108 L 65.79000716365546,82.01994446983466 L 65.26957769641697,83.07310979632553 L 64.494302189112,83.9556923267813 L 63.51701438636003,84.60754552028806 L 62.404314836874164,84.98424665894666 L 61.232032176128904,85.06012418268551 L 60.080055530165346,84.83000716365547 L 59.02689020367449,84.309577696417 M 57.83087002688646,58.957493913760786 L 58.62014020247947,58.08740390392726 L 59.60771251450282,57.451239645407846 L 60.726285541932555,57.09235468110946 L 61.89963038147862,57.03520642826362 L 63.04778552137002,57.283689445859814 L 64.09250608623921,57.820870026886475 L 64.96259609607274,58.61014020247947 L 65.59876035459216,59.59771251450283 L 65.95764531889054,60.71628554193256 L 66.01479357173636,61.88963038147864 L 65.76631055414018,63.037785521370026 L 65.22912997311353,64.08250608623922 L 64.43985979752051,64.95259609607274 L 63.45228748549715,65.58876035459215 L 62.33371445806743,65.94764531889054 L 61.160369618521365,66.00479357173637 L 60.01221447862997,65.75631055414019 L 58.96749391376078,65.21912997311355 L 58.09740390392725,64.42985979752054 L 57.46123964540783,63.442287485497154 L 57.10235468110945,62.32371445806744 L 57.04520642826361,61.150369618521374 L 57.293689445859805,60.00221447862997 L 57.83087002688646,58.957493913760786 M 57.081379878776445,43.14807006794653 L 57.057465486062455,41.9735777788642 L 57.33834692926053,40.83291584377575 L 57.90488260219527,39.80381848852454 L 58.71846403500071,38.95641699720707 L 59.723646997537955,38.34846038105949 L 60.85192993205348,38.02137987877644 L 62.0264222211358,37.99746548606245 L 63.167084156224234,38.27834692926054 L 64.19618151147549,38.84488260219532 L 65.04358300279296,39.65846403500069 L 65.65153961894052,40.663646997537946 L 65.97862012122356,41.79192993205348 L 66.00253451393755,42.966422221135815 L 65.72165307073945,44.10708415622425 L 65.1551173978047,45.13618151147548 L 64.3415359649993,45.98358300279293 L 63.33635300246207,46.5915396189405 L 62.20807006794651,46.918620121223555 L 61.0335777788642,46.942534513937545 L 59.89291584377573,46.661653070739476 L 58.8638184885245,46.09511739780471 L 58.016416997207045,45.281535964999314 L 57.40846038105946,44.27635300246208 L 57.081379878776445,43.14807006794653 M 61.529999999999994,18.92 L 62.69468570296134,19.073333781699212 L 63.77999999999999,19.522885682970045 L 64.71198051533945,20.23801948466056 L 65.42711431702996,21.17000000000001 L 65.87666621830078,22.25531429703866 L 66.02999999999999,23.420000000000016 L 65.8766662183008,24.58468570296135 L 65.42711431702996,25.670000000000016 L 64.71198051533946,26.601980515339477 L 63.77999999999999,27.31711431702999 L 62.69468570296134,27.766666218300827 L 61.529999999999994,27.92000000000002 L 60.36531429703865,27.766666218300838 L 59.28,27.31711431702998 L 58.348019484660526,26.60198051533949 L 57.63288568297001,25.670000000000023 L 57.1833337816992,24.584685702961366 L 57.03,23.42000000000001 L 57.183333781699176,22.255314297038673 L 57.63288568297001,21.170000000000023 L 58.34801948466053,20.23801948466056 L 59.28,19.522885682970056 L 60.36531429703865,19.073333781699212 L 61.529999999999994,18.92 "
  />
</svg>
